<?xml version="1.0" encoding="utf-8"?>
<!-- Generator: Adobe Illustrator 23.0.6, SVG Export Plug-In . SVG Version: 6.00 Build 0)  -->
<svg version="1.1" id="purple_x5F_content_x5F_icon"
	 xmlns="http://www.w3.org/2000/svg" xmlns:xlink="http://www.w3.org/1999/xlink" x="0px" y="0px" viewBox="0 0 56.4 44.3"
	 style="enable-background:new 0 0 56.4 44.3;" xml:space="preserve">
<style type="text/css">
	.st0{fill:#FFFFFF;}
	.st1{fill:#393760;}
</style>
<g>
	<g>
		<g>
			<path class="st0" d="M4,41.5H51c2.2,0,4-1.8,4-4v-35c0-2.2-1.8-4-4-4H4c-2.2,0-4,1.8-4,4v35C0,39.7,1.8,41.5,4,41.5z"/>
		</g>
		<g>
			<path class="st1" d="M51.6,42.2H3.4c-2.3,0-4.1-1.8-4.1-4.1V1.9c0-2.3,1.8-4.1,4.1-4.1h48.2c2.2,0,4.1,1.8,4.1,4.1v36.1
				C55.7,40.3,53.8,42.2,51.6,42.2z M3.4-0.9c-1.5,0-2.8,1.2-2.8,2.8v36.1c0,1.5,1.2,2.8,2.8,2.8h48.2c1.5,0,2.8-1.2,2.8-2.8V1.9
				c0-1.5-1.2-2.8-2.8-2.8L3.4-0.9z"/>
		</g>
		<g>
			<path class="st1" d="M43.8,37.8H6c-1.3,0-2.4-1.1-2.4-2.4v-31c0-1.3,1.1-2.4,2.4-2.4h37.9c1.3,0,2.4,1.1,2.4,2.4v31
				C46.2,36.8,45.2,37.8,43.8,37.8z M6,3.4c-0.6,0-1.1,0.5-1.1,1.1v31c0,0.6,0.5,1.1,1.1,1.1h37.9c0.6,0,1.1-0.5,1.1-1.1v-31
				c0-0.6-0.5-1.1-1.1-1.1H6z"/>
		</g>
		<g>
			<circle class="st1" cx="50.3" cy="20" r="0.9"/>
		</g>
		<g>
			<path class="st1" d="M50.3,27.1c-0.4,0-0.7-0.3-0.7-0.6v-2.6c0-0.4,0.3-0.6,0.7-0.6s0.7,0.3,0.7,0.6v2.6
				C50.9,26.8,50.7,27.1,50.3,27.1z"/>
		</g>
		<g>
			<path class="st1" d="M50.3,33.1c-0.4,0-0.7-0.3-0.7-0.7v-2.6c0-0.4,0.3-0.6,0.7-0.6s0.7,0.3,0.7,0.6v2.6
				C50.9,32.8,50.7,33.1,50.3,33.1z"/>
		</g>
		<g>
			<path class="st1" d="M50.3,10.8c-0.4,0-0.7-0.3-0.7-0.6V7.5c0-0.4,0.3-0.6,0.7-0.6s0.7,0.3,0.7,0.6v2.6
				C50.9,10.5,50.7,10.8,50.3,10.8z"/>
		</g>
		<g>
			<path class="st1" d="M50.3,16.8c-0.4,0-0.7-0.3-0.7-0.6v-2.6c0-0.4,0.3-0.6,0.7-0.6s0.7,0.3,0.7,0.6v2.6
				C50.9,16.5,50.7,16.8,50.3,16.8z"/>
		</g>
		<g>
			<path class="st1" d="M41.4,27.2H30.2c-0.2,0-0.5-0.1-0.6-0.3c-0.1-0.2-0.1-0.5,0-0.7l5.6-8.6c0.2-0.4,0.8-0.4,1.1,0l5.6,8.6
				c0.1,0.2,0.1,0.5,0,0.7C41.9,27.1,41.7,27.2,41.4,27.2z M31.4,25.9h8.9l-4.4-6.8L31.4,25.9z"/>
		</g>
		<g>
			<path class="st0" d="M30.2,26.6h11.3l4.1,6.3v2.6c0,1-0.8,1.7-1.7,1.7H23.2L30.2,26.6z"/>
		</g>
		<g>
			<path class="st1" d="M43.8,37.8H23.2c-0.2,0-0.5-0.1-0.6-0.3s-0.1-0.5,0-0.7l6.9-10.6c0.1-0.2,0.3-0.3,0.5-0.3h11.3
				c0.2,0,0.4,0.1,0.5,0.3l4.1,6.3c0.1,0.1,0.1,0.2,0.1,0.3v2.6C46.2,36.8,45.2,37.8,43.8,37.8z M24.4,36.6h19.4
				c0.6,0,1.1-0.5,1.1-1.1v-2.4l-3.8-5.9H30.5L24.4,36.6z"/>
		</g>
		<g>
			<circle class="st0" cx="36.9" cy="31.1" r="1.7"/>
		</g>
		<g>
			<path class="st1" d="M35.8,33.5c-1.3,0-2.4-1.1-2.4-2.4c0-1.3,1.1-2.4,2.4-2.4s2.4,1.1,2.4,2.4C38.2,32.4,37.1,33.5,35.8,33.5z
				 M35.8,30c-0.6,0-1.1,0.5-1.1,1.1c0,0.6,0.5,1.1,1.1,1.1c0.6,0,1.1-0.5,1.1-1.1C36.9,30.5,36.4,30,35.8,30z"/>
		</g>
	</g>
</g>
<g>
	<path class="st1" d="M31,10.9h-4.4c-0.3,0-0.5-0.2-0.5-0.6s0.2-0.6,0.5-0.6H31c0.3,0,0.5,0.2,0.5,0.6S31.3,10.9,31,10.9z"/>
</g>
<g>
	<path class="st1" d="M34,7.9h-3c-0.3,0-0.5-0.2-0.5-0.6c0-0.3,0.2-0.6,0.5-0.6h3c0.3,0,0.5,0.2,0.5,0.6C34.6,7.6,34.3,7.9,34,7.9z"
		/>
</g>
<g>
	<path class="st1" d="M28.8,7.9h-2.2c-0.3,0-0.5-0.2-0.5-0.6c0-0.3,0.2-0.6,0.5-0.6h2.2c0.3,0,0.5,0.2,0.5,0.6
		C29.4,7.6,29.1,7.9,28.8,7.9z"/>
</g>
<g>
	<path class="st1" d="M24,9.4h-1c-0.3,0-0.5-0.2-0.5-0.6c0-0.3,0.2-0.6,0.5-0.6h1c0.3,0,0.5,0.2,0.5,0.6C24.6,9.1,24.3,9.4,24,9.4z"
		/>
</g>
<g>
	<path class="st1" d="M20.6,9.4h-1c-0.3,0-0.5-0.2-0.5-0.6c0-0.3,0.2-0.6,0.5-0.6h1c0.3,0,0.5,0.2,0.5,0.6
		C21.1,9.1,20.9,9.4,20.6,9.4z"/>
</g>
<g>
	<path class="st1" d="M21.8,11.7c-0.3,0-0.5-0.2-0.5-0.6V10c0-0.3,0.2-0.6,0.5-0.6c0.3,0,0.5,0.2,0.5,0.6v1.1
		C22.3,11.4,22.1,11.7,21.8,11.7z"/>
</g>
<g>
	<path class="st1" d="M21.8,8.2c-0.3,0-0.5-0.2-0.5-0.6v-1c0-0.3,0.2-0.6,0.5-0.6c0.3,0,0.5,0.2,0.5,0.6v1.1
		C22.3,7.9,22.1,8.2,21.8,8.2z"/>
</g>
<g>
	<path class="st1" d="M21.1,21.2H18c-0.3,0-0.6-0.2-0.6-0.4s0.2-0.4,0.6-0.4h3.1c0.3,0,0.6,0.2,0.6,0.4C21.6,21,21.4,21.2,21.1,21.2
		z"/>
</g>
<g>
	<path class="st1" d="M15.7,21.2h-5.2c-0.3,0-0.6-0.2-0.6-0.4s0.2-0.4,0.6-0.4h5.2c0.3,0,0.6,0.2,0.6,0.4
		C16.3,21,16.1,21.2,15.7,21.2z"/>
</g>
<g>
	<path class="st1" d="M8.2,21.2H7.5c-0.3,0-0.6-0.2-0.6-0.4s0.2-0.4,0.6-0.4h0.8c0.3,0,0.6,0.2,0.6,0.4C8.8,21,8.6,21.2,8.2,21.2z"
		/>
</g>
<g>
	<path class="st1" d="M8.2,25.9H7.5c-0.3,0-0.6-0.2-0.6-0.4s0.2-0.4,0.6-0.4h0.8c0.3,0,0.6,0.2,0.6,0.4S8.6,25.9,8.2,25.9z"/>
</g>
<g>
	<path class="st1" d="M8.2,32.9H7.5c-0.3,0-0.6-0.2-0.6-0.3s0.2-0.3,0.6-0.3h0.8c0.3,0,0.6,0.2,0.6,0.3S8.6,32.9,8.2,32.9z"/>
</g>
<g>
	<path class="st1" d="M18.8,23.5H12c-0.3,0-0.6-0.2-0.6-0.4s0.2-0.4,0.6-0.4h6.8c0.3,0,0.6,0.2,0.6,0.4
		C19.4,23.4,19.1,23.5,18.8,23.5z"/>
</g>
<g>
	<path class="st1" d="M21.1,25.9h-5.3c-0.3,0-0.6-0.2-0.6-0.4s0.2-0.4,0.6-0.4h5.3c0.3,0,0.6,0.2,0.6,0.4S21.4,25.9,21.1,25.9z"/>
</g>
<g>
	<path class="st1" d="M13.5,25.9h-3c-0.3,0-0.6-0.2-0.6-0.4s0.2-0.4,0.6-0.4h3c0.3,0,0.6,0.2,0.6,0.4C14,25.7,13.8,25.9,13.5,25.9z"
		/>
</g>
<g>
	<path class="st1" d="M21.1,28.2h-3.4c-0.3,0-0.6-0.2-0.6-0.4s0.2-0.4,0.6-0.4h3.4c0.3,0,0.6,0.2,0.6,0.4S21.4,28.2,21.1,28.2z"/>
</g>
<g>
	<path class="st1" d="M15.4,28.2H12c-0.3,0-0.6-0.2-0.6-0.4s0.2-0.4,0.6-0.4h3.4c0.3,0,0.6,0.2,0.6,0.4S15.7,28.2,15.4,28.2z"/>
</g>
<g>
	<path class="st1" d="M18.1,30.6h-6c-0.3,0-0.6-0.2-0.6-0.3s0.2-0.3,0.6-0.3h6c0.3,0,0.6,0.2,0.6,0.3C18.6,30.4,18.4,30.6,18.1,30.6
		z"/>
</g>
<g>
	<path class="st1" d="M21.1,32.9h-3.4c-0.3,0-0.6-0.2-0.6-0.3s0.2-0.3,0.6-0.3h3.4c0.3,0,0.6,0.2,0.6,0.3S21.4,32.9,21.1,32.9z"/>
</g>
<g>
	<path class="st1" d="M15.4,32.9h-4.9c-0.3,0-0.6-0.2-0.6-0.3s0.2-0.3,0.6-0.3h4.9c0.3,0,0.6,0.2,0.6,0.3
		C16,32.8,15.7,32.9,15.4,32.9z"/>
</g>
<g>
	<path class="st1" d="M18.1,35.3h-6c-0.3,0-0.6-0.2-0.6-0.3s0.2-0.3,0.6-0.3h6c0.3,0,0.6,0.2,0.6,0.3S18.4,35.3,18.1,35.3z"/>
</g>
</svg>
