<?xml version="1.0" encoding="utf-8"?>
<!-- Generator: Adobe Illustrator 23.0.6, SVG Export Plug-In . SVG Version: 6.00 Build 0)  -->
<svg version="1.1" id="purple_x5F_development_x5F_icon"
	 xmlns="http://www.w3.org/2000/svg" xmlns:xlink="http://www.w3.org/1999/xlink" x="0px" y="0px" viewBox="0 0 48 45.1"
	 style="enable-background:new 0 0 48 45.1;" xml:space="preserve">
<style type="text/css">
	.st0{fill:#FFFFFF;}
	.st1{fill:#393760;}
	.st2{fill:#21365F;}
</style>
<g>
	<g>
		<path class="st0" d="M22.4,40.2H12.2v2.2h9.3c0.5,0,1-0.5,1-1C22.4,41.4,22.4,40.2,22.4,40.2z"/>
	</g>
	<g>
		<path class="st1" d="M29.8,45.1H12.2c-0.3,0-0.6-0.2-0.6-0.5v-4.4c0-0.3,0.2-0.5,0.6-0.5h17.6c0.3,0,0.5,0.2,0.5,0.5v4.4
			C30.3,44.9,30.1,45.1,29.8,45.1z M12.7,44h16.5v-3.3H12.7V44z"/>
	</g>
	<g>
		<path class="st1" d="M39.3,40.7H2.6c-1.5,0-2.8-1.2-2.8-2.8v-2.2c0-0.3,0.2-0.5,0.6-0.5h41.1c0.3,0,0.5,0.2,0.5,0.5V38
			C42.1,39.5,40.8,40.7,39.3,40.7z M1,36.3V38c0,0.9,0.7,1.7,1.6,1.7h36.7c0.9,0,1.7-0.7,1.7-1.7v-1.7H1z"/>
	</g>
	<g>
		<path class="st1" d="M35.6,45.1H6.3c-0.3,0-0.6-0.2-0.6-0.5S6,44,6.3,44h29.3c0.3,0,0.6,0.2,0.6,0.5S35.9,45.1,35.6,45.1z"/>
	</g>
	<g>
		<path class="st0" d="M41.5,38h-40L1,3.7C1,2,2.4,0.5,4.3,0.5h34c1.8,0,3.3,1.4,3.3,3.2L41.5,38z"/>
	</g>
	<g>
		<path class="st1" d="M41.5,36.3H0.4c-0.3,0-0.6-0.2-0.6-0.5v-33C-0.1,1.2,1.1,0,2.6,0h36.7c1.5,0,2.8,1.2,2.8,2.8v33
			C42.1,36.1,41.8,36.3,41.5,36.3z M1,35.2h40V2.8c0-0.9-0.7-1.6-1.7-1.6H2.6C1.7,1.1,1,1.8,1,2.8V35.2z"/>
	</g>
	<g>
		<path class="st1" d="M36.4,18.7H5.6c-0.7,0-1.3-0.6-1.3-1.3V5.7c0-0.7,0.6-1.3,1.3-1.3h30.8c0.7,0,1.3,0.6,1.3,1.3v11.7
			C37.7,18.1,37.1,18.7,36.4,18.7z M5.6,5.5c-0.1,0-0.2,0.1-0.2,0.2v11.7c0,0.1,0.1,0.2,0.2,0.2h30.8c0.1,0,0.2-0.1,0.2-0.2V5.7
			c0-0.1-0.1-0.2-0.2-0.2H5.6z"/>
	</g>
	<g>
		<path class="st1" d="M36.4,31.9H5.6c-0.7,0-1.3-0.6-1.3-1.3v-7.3c0-0.7,0.6-1.3,1.3-1.3h30.8c0.7,0,1.3,0.6,1.3,1.3v7.3
			C37.7,31.3,37.1,31.9,36.4,31.9z M5.6,23.1c-0.1,0-0.2,0.1-0.2,0.2v7.3c0,0.1,0.1,0.2,0.2,0.2h30.8c0.1,0,0.2-0.1,0.2-0.2v-7.3
			c0-0.1-0.1-0.2-0.2-0.2H5.6z"/>
	</g>
	<g>
		<g>
			<g>
				<path class="st0" d="M45.4,44.5H25.9c-1.1,0-2-0.9-2-2V14.2c0-1.1,0.9-2,2-2h19.5c1.1,0,2,0.9,2,2v28.3
					C47.4,43.6,46.5,44.5,45.4,44.5z"/>
			</g>
			<g>
				<g>
					<path class="st1" d="M45.9,45H25.4c-1.1,0-2-0.9-2-2V13.7c0-1.1,0.9-2,2-2h20.5c1.1,0,2,0.9,2,2V43C47.9,44.2,47,45,45.9,45z
						 M25.4,12.8c-0.5,0-0.9,0.4-0.9,0.9V43c0,0.5,0.4,0.9,0.9,0.9h20.5c0.5,0,0.9-0.4,0.9-0.9V13.7c0-0.5-0.4-0.9-0.9-0.9
						C45.9,12.8,25.4,12.8,25.4,12.8z"/>
				</g>
				<g>
					<path class="st1" d="M45.9,39.9H25.4c-1.1,0-2-0.9-2-2V18.8c0-1.1,0.9-2,2-2h20.5c1.1,0,2,0.9,2,2v19.1
						C47.9,39,47,39.9,45.9,39.9z M25.4,17.9c-0.5,0-0.9,0.4-0.9,0.9v19.1c0,0.5,0.4,0.9,0.9,0.9h20.5c0.5,0,0.9-0.4,0.9-0.9V18.8
						c0-0.5-0.4-0.9-0.9-0.9H25.4z"/>
				</g>
				<g>
					<circle class="st1" cx="35.6" cy="14.8" r="0.7"/>
				</g>
				<g>
					<circle class="st1" cx="35.6" cy="41.9" r="0.7"/>
				</g>
				<g>
					<circle class="st1" cx="29.8" cy="41.9" r="0.7"/>
				</g>
				<g>
					<circle class="st1" cx="41.5" cy="41.9" r="0.7"/>
				</g>
				<g>
					<path class="st1" d="M43,28.2H28.3c-0.7,0-1.3-0.6-1.3-1.3v-5.1c0-0.7,0.6-1.3,1.3-1.3H43c0.7,0,1.3,0.6,1.3,1.3v5.1
						C44.3,27.6,43.7,28.2,43,28.2z M28.3,21.6c-0.1,0-0.2,0.1-0.2,0.2v5.1c0,0.1,0.1,0.2,0.2,0.2H43c0.1,0,0.2-0.1,0.2-0.2v-5.1
						c0-0.1-0.1-0.2-0.2-0.2C43,21.6,28.3,21.6,28.3,21.6z"/>
				</g>
				<g>
					<path class="st1" d="M43,36.2H28.3c-0.7,0-1.3-0.6-1.3-1.3V32c0-0.7,0.6-1.3,1.3-1.3H43c0.7,0,1.3,0.6,1.3,1.3V35
						C44.3,35.7,43.7,36.2,43,36.2z M28.3,31.9c-0.1,0-0.2,0.1-0.2,0.2V35c0,0.1,0.1,0.2,0.2,0.2H43c0.1,0,0.2-0.1,0.2-0.2V32
						c0-0.1-0.1-0.2-0.2-0.2C43,31.9,28.3,31.9,28.3,31.9z"/>
				</g>
			</g>
		</g>
		<g>
			<g>
				<path class="st1" d="M38.1,25.4h-2.3c-0.2,0-0.3-0.1-0.3-0.3c0-0.2,0.1-0.3,0.3-0.3h2.3c0.2,0,0.3,0.1,0.3,0.3
					S38.2,25.4,38.1,25.4z"/>
			</g>
			<g>
				<path class="st1" d="M39.6,23.8h-1.5c-0.2,0-0.3-0.1-0.3-0.3c0-0.2,0.1-0.3,0.3-0.3h1.5c0.2,0,0.3,0.1,0.3,0.3
					S39.8,23.8,39.6,23.8z"/>
			</g>
			<g>
				<path class="st1" d="M36.9,23.8h-1.2c-0.2,0-0.3-0.1-0.3-0.3c0-0.2,0.1-0.3,0.3-0.3h1.2c0.2,0,0.3,0.1,0.3,0.3
					S37.1,23.8,36.9,23.8z"/>
			</g>
			<g>
				<path class="st1" d="M34.4,24.6h-0.5c-0.2,0-0.3-0.1-0.3-0.3c0-0.2,0.1-0.3,0.3-0.3h0.5c0.2,0,0.3,0.1,0.3,0.3
					C34.7,24.5,34.6,24.6,34.4,24.6z"/>
			</g>
			<g>
				<path class="st1" d="M32.6,24.6h-0.5c-0.2,0-0.3-0.1-0.3-0.3c0-0.2,0.1-0.3,0.3-0.3h0.5c0.2,0,0.3,0.1,0.3,0.3
					C32.9,24.5,32.8,24.6,32.6,24.6z"/>
			</g>
			<g>
				<path class="st1" d="M33.2,25.8c-0.2,0-0.3-0.1-0.3-0.3V25c0-0.2,0.1-0.3,0.3-0.3c0.2,0,0.3,0.1,0.3,0.3v0.5
					C33.5,25.7,33.4,25.8,33.2,25.8z"/>
			</g>
			<g>
				<path class="st1" d="M33.2,24c-0.2,0-0.3-0.1-0.3-0.3v-0.5c0-0.2,0.1-0.3,0.3-0.3c0.2,0,0.3,0.1,0.3,0.3v0.5
					C33.5,23.9,33.4,24,33.2,24z"/>
			</g>
		</g>
	</g>
</g>
<g>
	<g>
		<path class="st2" d="M24.1,10.7h-2.9c-0.2,0-0.4-0.2-0.4-0.4c0-0.2,0.2-0.4,0.4-0.4h2.9c0.2,0,0.4,0.2,0.4,0.4
			S24.3,10.7,24.1,10.7z"/>
	</g>
	<g>
		<path class="st2" d="M26.1,8.7h-2c-0.2,0-0.4-0.2-0.4-0.4c0-0.2,0.2-0.4,0.4-0.4h2c0.2,0,0.4,0.2,0.4,0.4
			C26.5,8.6,26.3,8.7,26.1,8.7z"/>
	</g>
	<g>
		<path class="st2" d="M22.7,8.7h-1.5c-0.2,0-0.4-0.2-0.4-0.4C20.8,8.1,21,8,21.2,8h1.5C22.9,8,23,8.1,23,8.3
			C23,8.6,22.9,8.7,22.7,8.7z"/>
	</g>
	<g>
		<path class="st2" d="M19.5,9.7h-0.7c-0.2,0-0.4-0.2-0.4-0.4c0-0.2,0.2-0.4,0.4-0.4h0.7c0.2,0,0.4,0.2,0.4,0.4
			C19.8,9.6,19.7,9.7,19.5,9.7z"/>
	</g>
	<g>
		<path class="st2" d="M17.2,9.7h-0.7c-0.2,0-0.4-0.2-0.4-0.4c0-0.2,0.2-0.4,0.4-0.4h0.7c0.2,0,0.4,0.2,0.4,0.4
			C17.6,9.6,17.4,9.7,17.2,9.7z"/>
	</g>
	<g>
		<path class="st2" d="M18,11.2c-0.2,0-0.4-0.2-0.4-0.4v-0.7c0-0.2,0.2-0.4,0.4-0.4c0.2,0,0.4,0.2,0.4,0.4v0.7
			C18.4,11.1,18.2,11.2,18,11.2z"/>
	</g>
	<g>
		<path class="st2" d="M18,8.9c-0.2,0-0.4-0.2-0.4-0.4V7.8c0-0.2,0.2-0.4,0.4-0.4c0.2,0,0.4,0.2,0.4,0.4v0.7
			C18.4,8.8,18.2,8.9,18,8.9z"/>
	</g>
</g>
</svg>
