<?xml version="1.0" encoding="utf-8"?>
<!-- Generator: Adobe Illustrator 23.0.6, SVG Export Plug-In . SVG Version: 6.00 Build 0)  -->
<svg version="1.1" id="instagram" xmlns="http://www.w3.org/2000/svg" xmlns:xlink="http://www.w3.org/1999/xlink" x="0px" y="0px"
	 viewBox="0 0 89.45 89.45" style="enable-background:new 0 0 89.45 89.45;" xml:space="preserve">
<style type="text/css">
	.st0{fill:#393760;}
</style>
<g id="instagram_1_">
	<path id="camera" class="st0" d="M44.73,8.06c11.94,0,13.36,0.05,18.07,0.26c4.36,0.2,6.73,0.93,8.31,1.54
		c2.09,0.81,3.58,1.78,5.14,3.35c1.57,1.57,2.53,3.05,3.35,5.14c0.61,1.58,1.34,3.94,1.54,8.31c0.21,4.72,0.26,6.13,0.26,18.07
		s-0.05,13.36-0.26,18.07c-0.2,4.36-0.93,6.73-1.54,8.3c-0.81,2.09-1.78,3.58-3.35,5.14c-1.56,1.56-3.05,2.53-5.14,3.35
		c-1.58,0.61-3.95,1.34-8.31,1.54c-4.72,0.21-6.13,0.26-18.07,0.26s-13.36-0.05-18.07-0.26c-4.36-0.2-6.73-0.93-8.3-1.54
		c-2.09-0.81-3.58-1.78-5.14-3.35s-2.53-3.05-3.35-5.14c-0.61-1.58-1.34-3.94-1.54-8.3c-0.21-4.72-0.26-6.13-0.26-18.07
		s0.05-13.36,0.26-18.07c0.2-4.36,0.93-6.73,1.54-8.31c0.81-2.09,1.78-3.58,3.35-5.14c1.57-1.57,3.05-2.53,5.14-3.35
		c1.58-0.61,3.94-1.34,8.3-1.54C31.37,8.1,32.78,8.06,44.73,8.06 M44.73,0C32.58,0,31.06,0.05,26.29,0.27
		c-4.76,0.22-8.01,0.97-10.86,2.08c-2.94,1.14-5.44,2.67-7.92,5.16C5.02,10,3.49,12.49,2.35,15.43c-1.11,2.85-1.86,6.1-2.08,10.86
		C0.05,31.06,0,32.58,0,44.73S0.05,58.4,0.27,63.17c0.22,4.76,0.97,8.01,2.08,10.86c1.14,2.94,2.67,5.44,5.16,7.92
		c2.49,2.49,4.98,4.02,7.92,5.16c2.85,1.1,6.1,1.86,10.86,2.08c4.77,0.22,6.29,0.27,18.44,0.27s13.67-0.05,18.44-0.27
		c4.76-0.22,8.01-0.97,10.86-2.08c2.94-1.14,5.44-2.67,7.92-5.16c2.49-2.49,4.02-4.98,5.16-7.92c1.11-2.85,1.86-6.1,2.08-10.86
		c0.22-4.77,0.27-6.29,0.27-18.44s-0.05-13.67-0.27-18.44c-0.22-4.76-0.97-8.01-2.08-10.86c-1.14-2.94-2.67-5.44-5.16-7.92
		c-2.49-2.49-4.98-4.02-7.92-5.16c-2.85-1.1-6.1-1.86-10.86-2.08C58.4,0.05,56.87,0,44.73,0"/>
	<path id="white_x5F_circle" class="st0" d="M44.73,21.76c-12.68,0-22.97,10.28-22.97,22.97c0,12.68,10.28,22.97,22.97,22.97
		c12.68,0,22.97-10.28,22.97-22.97C67.69,32.04,57.41,21.76,44.73,21.76 M44.73,59.64c-8.23,0-14.91-6.68-14.91-14.91
		s6.67-14.91,14.91-14.91c8.23,0,14.91,6.67,14.91,14.91C59.64,52.96,52.96,59.64,44.73,59.64"/>
	<path id="purple_x5F_circle" class="st0" d="M73.97,20.85c0,2.96-2.4,5.37-5.37,5.37c-2.96,0-5.37-2.4-5.37-5.37
		c0-2.96,2.4-5.37,5.37-5.37C71.57,15.48,73.97,17.89,73.97,20.85"/>
</g>
</svg>
