<?xml version="1.0" encoding="utf-8"?>
<!-- Generator: Adobe Illustrator 23.0.6, SVG Export Plug-In . SVG Version: 6.00 Build 0)  -->
<svg version="1.1" id="twitter" xmlns="http://www.w3.org/2000/svg" xmlns:xlink="http://www.w3.org/1999/xlink" x="0px" y="0px"
	 viewBox="0 0 114.28 92.87" style="enable-background:new 0 0 114.28 92.87;" xml:space="preserve">
<style type="text/css">
	.st0{fill:#393861;}
</style>
<path id="purple_x5F_twitter" class="st0" d="M0,82.34c10.38,6.65,22.7,10.54,35.94,10.54c43.53,0,68.12-36.77,66.64-69.75
	c4.58-3.3,8.55-7.43,11.7-12.14c-4.21,1.86-8.73,3.13-13.47,3.69c4.84-2.9,8.56-7.49,10.31-12.97c-4.53,2.69-9.55,4.64-14.89,5.69
	C91.96,2.85,85.87,0,79.12,0C63.99,0,52.87,14.12,56.28,28.79C36.8,27.81,19.52,18.48,7.96,4.29c-6.14,10.54-3.19,24.33,7.26,31.31
	c-3.85-0.12-7.46-1.18-10.62-2.93C4.34,43.52,12.12,53.68,23.4,55.95c-3.3,0.9-6.92,1.1-10.58,0.4c2.98,9.32,11.64,16.09,21.9,16.28
	C24.86,80.36,12.44,83.81,0,82.34z"/>
</svg>
