<?xml version="1.0" encoding="utf-8"?>
<!-- Generator: Adobe Illustrator 23.0.6, SVG Export Plug-In . SVG Version: 6.00 Build 0)  -->
<svg version="1.1" id="volume" xmlns="http://www.w3.org/2000/svg" xmlns:xlink="http://www.w3.org/1999/xlink" x="0px" y="0px"
	 viewBox="0 0 100.1 100.1" style="enable-background:new 0 0 100.1 100.1;" xml:space="preserve">
<style type="text/css">
	.st0{fill:#BA7485;}
</style>
<g id="circle">
	<path class="st0" d="M50.05,100.1C22.45,100.1,0,77.65,0,50.05S22.45,0,50.05,0s50.05,22.45,50.05,50.05S77.65,100.1,50.05,100.1z
		 M50.05,3.67c-25.58,0-46.38,20.81-46.38,46.38c0,25.58,20.81,46.38,46.38,46.38c25.58,0,46.38-20.81,46.38-46.38
		C96.43,24.47,75.63,3.67,50.05,3.67z"/>
</g>
<g id="volume_1_">
	<path class="st0" d="M49.74,29.84c-0.7,0-1.31,0.26-1.82,0.77l-13.5,8.64H23.8c-0.7,0-1.31,0.26-1.82,0.77
		c-0.51,0.51-0.77,1.12-0.77,1.82V57.4c0,0.7,0.26,1.31,0.77,1.82c0.5,0.53,1.11,0.78,1.82,0.78h10.62l13.5,8.64
		c0.51,0.52,1.12,0.77,1.82,0.77s1.31-0.26,1.82-0.77c0.51-0.51,0.77-1.12,0.77-1.82V32.44c0-0.7-0.26-1.31-0.77-1.82
		C51.05,30.1,50.44,29.84,49.74,29.84z"/>
	<path class="st0" d="M64.29,55.36c1.15-1.77,1.72-3.68,1.72-5.74c0-2.05-0.57-3.97-1.72-5.76c-1.15-1.78-2.67-3.04-4.56-3.77
		c-0.27-0.14-0.61-0.2-1.02-0.2c-0.7,0-1.31,0.25-1.82,0.75s-0.77,1.11-0.77,1.84c0,0.57,0.16,1.05,0.49,1.44s0.72,0.73,1.18,1.01
		s0.92,0.59,1.38,0.93c0.46,0.34,0.85,0.82,1.18,1.44s0.49,1.39,0.49,2.31c0,0.92-0.16,1.69-0.49,2.31
		c-0.32,0.62-0.72,1.1-1.18,1.44s-0.92,0.65-1.38,0.93c-0.46,0.29-0.85,0.62-1.18,1.01c-0.32,0.39-0.49,0.87-0.49,1.44
		c0,0.73,0.26,1.34,0.77,1.84c0.51,0.5,1.12,0.75,1.82,0.75c0.41,0,0.74-0.07,1.02-0.2C61.62,58.4,63.14,57.13,64.29,55.36z"/>
	<path class="st0" d="M63.83,30.53c-0.35-0.14-0.7-0.2-1.05-0.2c-0.7,0-1.31,0.26-1.82,0.77s-0.77,1.12-0.77,1.82
		c0,1.05,0.53,1.85,1.58,2.39c1.51,0.78,2.54,1.38,3.08,1.78c2,1.46,3.56,3.29,4.68,5.49s1.68,4.55,1.68,7.03
		c0,2.49-0.56,4.83-1.68,7.03c-1.12,2.2-2.68,4.03-4.68,5.49c-0.54,0.41-1.57,1-3.08,1.78c-1.05,0.54-1.58,1.34-1.58,2.39
		c0,0.7,0.26,1.31,0.77,1.82c0.51,0.52,1.14,0.77,1.87,0.77c0.32,0,0.66-0.07,1.01-0.2c3.78-1.59,6.82-4.14,9.12-7.64
		c2.3-3.5,3.45-7.32,3.45-11.45s-1.15-7.95-3.45-11.45C70.65,34.68,67.61,32.13,63.83,30.53z"/>
</g>
</svg>
