<?xml version="1.0" encoding="utf-8"?>
<!-- Generator: Adobe Illustrator 23.0.6, SVG Export Plug-In . SVG Version: 6.00 Build 0)  -->
<svg version="1.1" id="purple_x5F_branding" xmlns="http://www.w3.org/2000/svg" xmlns:xlink="http://www.w3.org/1999/xlink"
	 x="0px" y="0px" viewBox="0 0 44.7 44.5" style="enable-background:new 0 0 44.7 44.5;" xml:space="preserve">
<style type="text/css">
	.st0{fill:#FFFFFF;}
	.st1{fill:#393760;}
	.st2{fill:#21365F;}
</style>
<g>
	<g>
		<g>
			<path class="st0" d="M32.6,43.9H2.5c-1.1,0-2-0.9-2-2V2.4c0-1.1,0.9-2,2-2h30.1c1.1,0,2,0.9,2,2v39.5
				C34.6,43,33.7,43.9,32.6,43.9z"/>
		</g>
		<g>
			<path class="st1" d="M33.2,44.4H1.8c-1,0-1.9-0.9-1.9-1.9V1.8c0-1.1,0.8-1.9,1.9-1.9h31.4c1,0,1.9,0.9,1.9,1.9v40.7
				C35.1,43.6,34.3,44.4,33.2,44.4z M1.8,1C1.4,1,1,1.4,1,1.8v40.7c0,0.5,0.4,0.9,0.8,0.9h31.4c0.5,0,0.8-0.4,0.8-0.9V1.8
				c0-0.5-0.4-0.9-0.8-0.9H1.8z"/>
		</g>
		<g>
			<path class="st0" d="M42.2,19.4H22.3c-0.5,0-1-0.5-1-1V7.7c0-0.6,0.5-1,1-1h19.9c0.5,0,1,0.4,1,1v10.6
				C43.2,18.9,42.7,19.4,42.2,19.4z"/>
		</g>
		<g>
			<path class="st1" d="M42.5,19.9H22c-0.7,0-1.2-0.5-1.2-1.2V7.4c0-0.7,0.5-1.2,1.2-1.2h20.5c0.7,0,1.2,0.6,1.2,1.2v11.2
				C43.7,19.3,43.2,19.9,42.5,19.9z M22,7.3c-0.1,0-0.2,0.1-0.2,0.2v11.2c0,0.1,0.1,0.2,0.2,0.2h20.5c0.1,0,0.2-0.1,0.2-0.2V7.4
				c0-0.1-0.1-0.2-0.2-0.2L22,7.3L22,7.3z"/>
		</g>
		<g>
			<path class="st1" d="M36.3,15h-4.1c-0.3,0-0.5-0.2-0.5-0.5s0.2-0.5,0.5-0.5h4.1c0.3,0,0.5,0.2,0.5,0.5S36.6,15,36.3,15z"/>
		</g>
		<g>
			<path class="st1" d="M39.1,12.2h-2.7c-0.3,0-0.5-0.2-0.5-0.5s0.2-0.5,0.5-0.5h2.7c0.3,0,0.5,0.2,0.5,0.5
				C39.6,11.9,39.4,12.2,39.1,12.2z"/>
		</g>
		<g>
			<path class="st1" d="M34.3,12.2h-2c-0.3,0-0.5-0.2-0.5-0.5s0.2-0.5,0.5-0.5h2c0.3,0,0.5,0.2,0.5,0.5
				C34.8,11.9,34.6,12.2,34.3,12.2z"/>
		</g>
		<g>
			<path class="st1" d="M29.8,13.6h-1c-0.3,0-0.5-0.2-0.5-0.5s0.2-0.5,0.5-0.5h1c0.3,0,0.5,0.2,0.5,0.5S30.1,13.6,29.8,13.6z"/>
		</g>
		<g>
			<path class="st1" d="M26.7,13.6h-1c-0.3,0-0.5-0.2-0.5-0.5s0.2-0.5,0.5-0.5h1c0.3,0,0.5,0.2,0.5,0.5S27,13.6,26.7,13.6z"/>
		</g>
		<g>
			<path class="st1" d="M27.8,15.7c-0.3,0-0.5-0.2-0.5-0.5v-1c0-0.3,0.2-0.5,0.5-0.5s0.5,0.2,0.5,0.5v1
				C28.3,15.4,28.1,15.7,27.8,15.7z"/>
		</g>
		<g>
			<path class="st1" d="M27.8,12.5c-0.3,0-0.5-0.2-0.5-0.5v-1c0-0.3,0.2-0.5,0.5-0.5s0.5,0.2,0.5,0.5v1
				C28.3,12.2,28.1,12.5,27.8,12.5z"/>
		</g>
		<g>
			<rect x="15.5" y="24.3" class="st0" width="28.7" height="14"/>
		</g>
		<g>
			<path class="st1" d="M44.2,38.8H15.5c-0.3,0-0.5-0.2-0.5-0.5v-14c0-0.3,0.2-0.5,0.5-0.5h28.7c0.3,0,0.5,0.2,0.5,0.5v14
				C44.7,38.6,44.5,38.8,44.2,38.8z M16,37.8h27.7v-13H16V37.8z"/>
		</g>
		<g>
			<polygon class="st0" points="29.8,31.3 15.5,24.3 44.2,24.3 			"/>
		</g>
		<g>
			<path class="st1" d="M29.8,31.8c-0.1,0-0.1,0-0.2,0l-14.3-7c-0.2-0.1-0.3-0.4-0.3-0.6s0.3-0.4,0.5-0.4h28.7
				c0.2,0,0.5,0.2,0.5,0.4s-0.1,0.5-0.3,0.6l-14.4,7C30,31.8,29.9,31.8,29.8,31.8z M17.8,24.8l12.1,5.9l12.1-5.9H17.8z"/>
		</g>
		<g>
			<path class="st1" d="M38.7,35.3h-4.1c-0.3,0-0.5-0.2-0.5-0.5c0-0.3,0.2-0.5,0.5-0.5h4.1c0.3,0,0.5,0.2,0.5,0.5
				C39.2,35.1,39,35.3,38.7,35.3z"/>
		</g>
		<g>
			<path class="st1" d="M41.4,32.5h-2.7c-0.3,0-0.5-0.2-0.5-0.5c0-0.3,0.2-0.5,0.5-0.5h2.7c0.3,0,0.5,0.2,0.5,0.5
				S41.7,32.5,41.4,32.5z"/>
		</g>
		<g>
			<path class="st1" d="M36.7,32.5h-2c-0.3,0-0.5-0.2-0.5-0.5c0-0.3,0.2-0.5,0.5-0.5h2c0.3,0,0.5,0.2,0.5,0.5
				C37.2,32.3,36.9,32.5,36.7,32.5z"/>
		</g>
		<g>
			<path class="st1" d="M22.3,33.9h-1c-0.3,0-0.5-0.2-0.5-0.5c0-0.3,0.2-0.5,0.5-0.5h1c0.3,0,0.5,0.2,0.5,0.5
				C22.8,33.7,22.6,33.9,22.3,33.9z"/>
		</g>
		<g>
			<path class="st1" d="M19.2,33.9h-1c-0.3,0-0.5-0.2-0.5-0.5c0-0.3,0.2-0.5,0.5-0.5h1c0.3,0,0.5,0.2,0.5,0.5S19.4,33.9,19.2,33.9z"
				/>
		</g>
		<g>
			<path class="st1" d="M20.3,36c-0.3,0-0.5-0.2-0.5-0.5v-1c0-0.3,0.2-0.5,0.5-0.5s0.5,0.2,0.5,0.5v1C20.8,35.8,20.5,36,20.3,36z"/>
		</g>
		<g>
			<path class="st1" d="M20.3,32.8c-0.3,0-0.5-0.2-0.5-0.5v-1c0-0.3,0.2-0.5,0.5-0.5s0.5,0.2,0.5,0.5v1
				C20.8,32.5,20.5,32.8,20.3,32.8z"/>
		</g>
	</g>
	<g>
		<path class="st2" d="M14.4,10.8h-4.1c-0.3,0-0.5-0.2-0.5-0.5s0.2-0.5,0.5-0.5h4.1c0.3,0,0.5,0.2,0.5,0.5
			C14.9,10.5,14.7,10.8,14.4,10.8z"/>
	</g>
	<g>
		<path class="st2" d="M17.2,8h-2.7c-0.3,0-0.5-0.2-0.5-0.5s0.2-0.5,0.5-0.5h2.7c0.3,0,0.5,0.2,0.5,0.5C17.7,7.7,17.4,8,17.2,8z"/>
	</g>
	<g>
		<path class="st2" d="M12.4,8h-2.1C10,8,9.8,7.7,9.8,7.4s0.2-0.5,0.5-0.5h2.1c0.3,0,0.5,0.2,0.5,0.5C12.9,7.7,12.7,8,12.4,8z"/>
	</g>
	<g>
		<path class="st2" d="M7.9,9.4H7c-0.3,0-0.5-0.2-0.5-0.5S6.7,8.3,7,8.3h0.9c0.3,0,0.5,0.2,0.5,0.5C8.4,9.1,8.2,9.4,7.9,9.4z"/>
	</g>
	<g>
		<path class="st2" d="M4.8,9.4h-1c-0.3,0-0.5-0.2-0.5-0.5s0.2-0.5,0.5-0.5h1c0.3,0,0.5,0.2,0.5,0.5C5.3,9.1,5,9.4,4.8,9.4z"/>
	</g>
	<g>
		<path class="st2" d="M5.9,11.5c-0.3,0-0.5-0.2-0.5-0.5v-1c0-0.3,0.2-0.5,0.5-0.5S6.4,9.7,6.4,10v1C6.4,11.2,6.1,11.5,5.9,11.5z"/>
	</g>
	<g>
		<path class="st2" d="M5.9,8.2C5.6,8.2,5.3,8,5.3,7.7v-1c0-0.3,0.2-0.5,0.5-0.5c0.3,0,0.5,0.2,0.5,0.5v1C6.4,8,6.1,8.2,5.9,8.2z"/>
	</g>
</g>
</svg>
