<?xml version="1.0" encoding="utf-8"?>
<!-- Generator: Adobe Illustrator 23.0.6, SVG Export Plug-In . SVG Version: 6.00 Build 0)  -->
<svg version="1.1" id="Layer_1" xmlns="http://www.w3.org/2000/svg" xmlns:xlink="http://www.w3.org/1999/xlink" x="0px" y="0px"
	 viewBox="0 0 44.7 44.5" style="enable-background:new 0 0 44.7 44.5;" xml:space="preserve">
<style type="text/css">
	.st0{fill:#FFFFFF;}
	.st1{fill:#393760;}
	.st2{fill:#FFFFFF;stroke:#000000;stroke-miterlimit:10;}
	.st3{fill:none;}
</style>
<g id="white_x5F_background">
	<path class="st0" d="M40.8,39.5H5c-1.5,0-2.8-1.2-2.8-2.8V4c0-1.5,1.2-2.8,2.8-2.8h35.8c1.5,0,2.8,1.2,2.8,2.8v32.8
		C43.6,38.3,42.3,39.5,40.8,39.5z"/>
</g>
<g id="purple_x5F_branding_x5F_icon_1_">
	<g>
		<g>
			<g>
				<path class="st0" d="M30.3,39.5H15.7v2.8h13.5c0.6,0,1.2-0.6,1.2-1.2L30.3,39.5z"/>
			</g>
			<g>
				<path class="st1" d="M30.1,44.4H15.7c-0.3,0-0.5-0.2-0.5-0.5v-4.3c0-0.3,0.2-0.5,0.5-0.5h14.4c0.3,0,0.5,0.2,0.5,0.5v4.3
					C30.6,44.1,30.4,44.4,30.1,44.4z M16.2,43.3h13.3v-3.2H16.2V43.3z"/>
			</g>
			<g>
				<path class="st1" d="M40.9,40.1h-36c-1.5,0-2.7-1.2-2.7-2.7v-2.2c0-0.3,0.2-0.5,0.5-0.5h40.3c0.3,0,0.5,0.2,0.5,0.5v2.2
					C43.6,38.9,42.4,40.1,40.9,40.1z M3.3,35.8v1.6C3.3,38.3,4,39,4.9,39h36c0.9,0,1.6-0.7,1.6-1.6v-1.6H3.3z"/>
			</g>
			<g>
				<path class="st1" d="M37.3,44.4H8.5c-0.3,0-0.5-0.2-0.5-0.5c0-0.3,0.2-0.5,0.5-0.5h28.8c0.3,0,0.5,0.2,0.5,0.5
					C37.8,44.1,37.6,44.4,37.3,44.4z"/>
			</g>
			<g>
				<path class="st1" d="M43.1,35.8H2.7c-0.3,0-0.5-0.2-0.5-0.5V2.8c0-1.5,1.2-2.7,2.7-2.7h36c1.5,0,2.7,1.2,2.7,2.7v32.4
					C43.6,35.5,43.4,35.8,43.1,35.8z M3.3,34.7h39.2V2.8c0-0.9-0.7-1.6-1.6-1.6h-36C4,1.2,3.3,1.9,3.3,2.8L3.3,34.7L3.3,34.7z"/>
			</g>
			<g>
				<path class="st0" d="M13.5,11.5H7.1V6.9c0-1.1,0.9-2,2-2h2.6c1.1,0,2,0.9,2,2L13.5,11.5L13.5,11.5z"/>
			</g>
			<g>
				<path class="st1" d="M13.5,12H7.1c-0.3,0-0.5-0.2-0.5-0.5v-5c0-1.1,0.9-2,2-2h3.6c1.1,0,2,0.9,2,2v5C14.1,11.8,13.8,12,13.5,12z
					 M7.6,10.9H13V6.4c0-0.5-0.4-0.9-0.9-0.9H8.5C8,5.5,7.6,5.9,7.6,6.4V10.9z"/>
			</g>
			<g>
				<rect x="7.1" y="11.5" class="st0" width="6.5" height="6.5"/>
			</g>
			<g>
				<path class="st1" d="M13.5,18.5H7.1c-0.3,0-0.5-0.2-0.5-0.5v-6.5c0-0.3,0.2-0.5,0.5-0.5h6.5c0.3,0,0.5,0.2,0.5,0.5v6.5
					C14.1,18.2,13.8,18.5,13.5,18.5z M7.6,17.4H13V12H7.6V17.4z"/>
			</g>
			<g>
				<rect x="7.1" y="17.9" class="st2" width="6.5" height="6.5"/>
			</g>
			<g>
				<path class="st1" d="M13.5,25H7.1c-0.3,0-0.5-0.2-0.5-0.5v-6.5c0-0.3,0.2-0.5,0.5-0.5h6.5c0.3,0,0.5,0.2,0.5,0.5v6.5
					C14.1,24.7,13.8,25,13.5,25z M7.6,23.9H13v-5.4H7.6V23.9z"/>
			</g>
			<g>
				<path class="st0" d="M11.6,30.9H9c-1.1,0-2-0.9-2-2v-4.5h6.5v4.5C13.5,30,12.7,30.9,11.6,30.9z"/>
			</g>
			<g>
				<path class="st1" d="M12.1,31.4H8.5c-1.1,0-2-0.9-2-2v-5c0-0.3,0.2-0.5,0.5-0.5h6.5c0.3,0,0.5,0.2,0.5,0.5v5
					C14.1,30.5,13.2,31.4,12.1,31.4z M7.6,25v4.5c0,0.5,0.4,0.9,0.9,0.9h3.6c0.5,0,0.9-0.4,0.9-0.9V25H7.6z"/>
			</g>
			<g>
				<path class="st3" d="M36.8,30.9h-17c-1.1,0-2-0.9-2-2v-22c0-1.1,0.9-2,2-2h17c1.1,0,2,0.9,2,2v22C38.7,30,37.9,30.9,36.8,30.9z"
					/>
			</g>
			<g>
				<path class="st1" d="M37.3,31.4h-18c-1.1,0-2-0.9-2-2v-23c0-1.1,0.9-2,2-2h18c1.1,0,2,0.9,2,2v23C39.3,30.5,38.4,31.4,37.3,31.4
					z M19.3,5.5c-0.5,0-0.9,0.4-0.9,0.9v23c0,0.5,0.4,0.9,0.9,0.9h18c0.5,0,0.9-0.4,0.9-0.9v-23c0-0.5-0.4-0.9-0.9-0.9H19.3z"/>
			</g>
			<g>
				<rect x="23.2" y="23.8" class="st0" width="4.8" height="4.8"/>
			</g>
			<g>
				<path class="st1" d="M28.4,23.8v4.8c0,0.2-0.2,0.4-0.4,0.4h-4.8c-0.2,0-0.4-0.2-0.4-0.4v-4.8c0-0.2,0.2-0.4,0.4-0.4H28
					C28.2,23.5,28.4,23.6,28.4,23.8z M27.7,28.3v-4.1h-4.1v4.1L27.7,28.3z"/>
			</g>
			<g>
				<circle class="st0" cx="29.5" cy="23.3" r="3.4"/>
			</g>
			<g>
				<path class="st1" d="M33.2,23.3c0,2.1-1.7,3.7-3.7,3.7s-3.7-1.7-3.7-3.7s1.7-3.7,3.7-3.7C31.5,19.6,33.2,21.3,33.2,23.3z
					 M26.5,23.3c0,1.7,1.3,3,3,3c1.7,0,3-1.3,3-3c0-1.7-1.3-3-3-3C27.8,20.3,26.5,21.7,26.5,23.3z"/>
			</g>
			<g>
				<circle class="st0" cx="32.4" cy="26.2" r="2.4"/>
			</g>
			<g>
				<path class="st1" d="M35.1,26.2c0,1.5-1.2,2.8-2.8,2.8c-1.5,0-2.8-1.2-2.8-2.8s1.2-2.8,2.8-2.8C33.9,23.5,35.1,24.7,35.1,26.2z
					 M30.3,26.2c0,1.1,0.9,2.1,2.1,2.1c1.1,0,2.1-0.9,2.1-2.1s-0.9-2.1-2.1-2.1C31.2,24.2,30.3,25.1,30.3,26.2z"/>
			</g>
		</g>
	</g>
	<g id="logo">
		<g>
			<path class="st1" d="M32,12.5h-3.8c-0.3,0-0.5-0.2-0.5-0.5s0.2-0.5,0.5-0.5H32c0.3,0,0.5,0.2,0.5,0.5S32.3,12.5,32,12.5z"/>
		</g>
		<g>
			<path class="st1" d="M34.6,9.9H32c-0.3,0-0.5-0.2-0.5-0.5c0-0.3,0.2-0.5,0.5-0.5h2.5c0.3,0,0.5,0.2,0.5,0.5
				C35,9.7,34.8,9.9,34.6,9.9z"/>
		</g>
		<g>
			<path class="st1" d="M30.1,9.9h-1.9c-0.3,0-0.5-0.2-0.5-0.5c0-0.3,0.2-0.5,0.5-0.5h1.9c0.3,0,0.5,0.2,0.5,0.5
				C30.6,9.7,30.4,9.9,30.1,9.9z"/>
		</g>
		<g>
			<path class="st1" d="M26,11.2h-0.9c-0.3,0-0.5-0.2-0.5-0.5c0-0.3,0.2-0.5,0.5-0.5H26c0.3,0,0.5,0.2,0.5,0.5
				C26.5,10.9,26.3,11.2,26,11.2z"/>
		</g>
		<g>
			<path class="st1" d="M23.1,11.2h-0.9c-0.3,0-0.5-0.2-0.5-0.5c0-0.3,0.2-0.5,0.5-0.5h0.9c0.3,0,0.5,0.2,0.5,0.5
				C23.6,10.9,23.4,11.2,23.1,11.2z"/>
		</g>
		<g>
			<path class="st1" d="M24.1,13.1c-0.3,0-0.5-0.2-0.5-0.5v-0.9c0-0.3,0.2-0.5,0.5-0.5c0.3,0,0.5,0.2,0.5,0.5v0.9
				C24.6,12.9,24.4,13.1,24.1,13.1z"/>
		</g>
		<g>
			<path class="st1" d="M24.1,10.1c-0.3,0-0.5-0.2-0.5-0.5V8.7c0-0.3,0.2-0.5,0.5-0.5c0.3,0,0.5,0.2,0.5,0.5v0.9
				C24.6,9.9,24.4,10.1,24.1,10.1z"/>
		</g>
	</g>
</g>
</svg>
