<?xml version="1.0" encoding="utf-8"?>
<!-- Generator: Adobe Illustrator 23.0.6, SVG Export Plug-In . SVG Version: 6.00 Build 0)  -->
<svg version="1.1" id="imagina_x5F_logo" xmlns="http://www.w3.org/2000/svg" xmlns:xlink="http://www.w3.org/1999/xlink" x="0px"
	 y="0px" viewBox="0 0 327.2 255.8" style="enable-background:new 0 0 327.2 255.8;" xml:space="preserve">
<style type="text/css">
	.st0{fill:none;stroke:#393760;stroke-width:4;stroke-miterlimit:10;}
	.st1{fill:#393760;}
	.st2{fill:none;}
	.st3{fill:#BA7485;}
	.st4{font-family:'UtopiaStd-Regular';}
	.st5{font-size:63px;}
	.st6{letter-spacing:1;}
	.st7{fill:#302C51;}
	.st8{font-family:'Poppins-Medium';}
	.st9{font-size:14px;}
	.st10{font-size:13px;}
</style>
<g id="light_x5F_rose_x5F_background">
</g>
<g id="woman">
	<g id="woman_1_">
		<path id="line" class="st0" d="M118.7,44.7c0,0,33.3-41.5,89.8-2.7"/>
		<path id="long_x5F_hair" class="st1" d="M215.9,56.7l-7.4-5.5V148h-7.3V90.9h-4.8V148h-6.7V96.9h-4.8V148h-7v-39.6h-4.8V148h-6.3
			v-39.6h-4.8V148h-7.1v-39.6H150V148h-6.5V96.9h-4.8V148H132V90.9h-4.8V148h-7.3V52.8l-7.4,5.5l0.3,91.3c0,0.2-0.1,0.3-0.1,0.5v2.2
			c0,1.1,0.9,2,2,2h98.9c1.1,0,2-0.9,2-2v-1.6h0L215.9,56.7z"/>
		<g id="hair">
			
				<image style="overflow:visible;opacity:9.000000e-02;" width="135" height="139" xlink:href="3CD4EDF794C24368.png"  transform="matrix(1 0 0 1 96.7304 0)">
			</image>
			<g>
				<path class="st1" d="M113.8,69.3c2.1,9,7.2,16.9,6.8,15.9c2.1,3.2,4.5,6.2,7.3,8.8l4.8,4.1c2,1.5,4.1,2.9,6.3,4.1
					c-0.1,0-0.1-0.1-0.2-0.1l0.6,0.4l4.8,2.9l6.4,3.8l4.8,2.9l6.6,3.9l4.8,0.2c1.7-0.9,4.5-2.4,6.9-3.7c0,0,4.7-2.6,4.8-2.7
					c6.5-3.6,12.7-7.8,18.5-12.4l4.8-4.3c2.5-2.6,4.8-5.4,6.7-8.5c19.7-31.3-2.1-72-38-76.2c-2.1-0.2-4.1-0.4-6.2-0.4
					c-28.6,0-51.8,22.5-51.8,50.3C112.5,62,113,65.7,113.8,69.3 M144.7,22.3C139.7,42.9,122.1,51,122.1,51
					C129.3,28.9,144.7,22.3,144.7,22.3z M121.3,57c0,0,25.4-10.3,29.2-37.1l6.4-1.8c0,0-0.2,22.6-18.8,36.2c0,0-4.4,4.5-16.8,10.3
					C120.8,64.8,121.3,57,121.3,57z M123.1,69.4c0,0,17.4-7,25.4-18.4c0,0,14.4-16.4,13.4-33.7h6.5c0,0-2.3,44.8-42.3,57.9
					C126.1,75.2,124.9,74.1,123.1,69.4z M162.9,78.6l7.4,1.2l0,0c5.4-31.2,34-36.6,34-36.6c0.8-0.2,3.1,9.6,3.3,10.7
					c0.7,3.8,0.9,7.7,0.4,11.6c-0.5,3.6-1.6,7.1-3.4,10.2c-1.5,2.5-3.6,4.6-5.6,6.7c-0.4,0.5-0.9,1-1.3,1.5
					c-3.4,3.9-7.5,7.3-11.9,10.4h-0.2v0.2c-5.6,4-11.7,7.4-17.5,10.6c-0.9,0.5-1.8,1-2.7,1.5c-7.2-2.7-13.7-6.8-19.8-11.4
					c-3.1-2.3-6-4.7-9-7.2c-0.7-0.6-6.6-6.5-6.4-6.6c5.5-2,10.9-5,15.7-8.4c14.2-9.9,23.5-26.8,27.9-43.3l2.3-10.4
					c0,0,15.7,3.8,24.3,17.5C200.5,36.7,171.5,42.8,162.9,78.6L162.9,78.6z"/>
			</g>
		</g>
		<g id="lip">
			
				<image style="overflow:visible;opacity:0.2;" width="64" height="48" xlink:href="3CD4EDF794C24369.png"  transform="matrix(1 0 0 1 135.6104 58.88)">
			</image>
			<g>
				<path class="st1" d="M183.5,81.8c-5.3-4.4-9.3-7.7-12-7.7c-2.8,0-4.1,1.9-4.1,1.9c0,0-1.4-1.9-4.1-1.9c-2.7,0-6.7,3.3-12.1,7.8
					c0,0,10.1,9,16.3,9c5.8,0,15-7.9,16.2-8.9C183.6,81.9,183.6,81.8,183.5,81.8z M163.6,82.3c0,0,2.9-2.2,7.1,0
					C170.7,82.3,167.1,84.4,163.6,82.3z"/>
			</g>
		</g>
	</g>
</g>
<g id="imagina">
	<rect x="32.2" y="188.8" class="st2" width="262.7" height="50.7"/>
	<text transform="matrix(1 0 0 1 47.7302 233.112)" class="st3 st4 st5 st6">Imagina</text>
</g>
<g id="tagline_1_">
	<rect y="164.6" class="st2" width="327.2" height="91.2"/>
	<text transform="matrix(1 0 0 1 77.6474 174.9144)"><tspan x="0" y="0" class="st7 st8 st9">You imagine, We create.</tspan><tspan x="171.9" y="0" class="st7 st8 st10">   </tspan></text>
</g>
</svg>
