<?xml version="1.0" encoding="utf-8"?>
<!-- Generator: Adobe Illustrator 23.0.6, SVG Export Plug-In . SVG Version: 6.00 Build 0)  -->
<svg version="1.1" id="volume" xmlns="http://www.w3.org/2000/svg" xmlns:xlink="http://www.w3.org/1999/xlink" x="0px" y="0px"
	 viewBox="0 0 100.1 100.1" style="enable-background:new 0 0 100.1 100.1;" xml:space="preserve">
<style type="text/css">
	.st0{fill:#393760;}
</style>
<g id="play_x5F_video_1_">
	<g id="circle">
		<path class="st0" d="M50.05,100.1C22.45,100.1,0,77.65,0,50.05S22.45,0,50.05,0s50.05,22.45,50.05,50.05S77.65,100.1,50.05,100.1z
			 M50.05,3.67c-25.58,0-46.38,20.81-46.38,46.38c0,25.58,20.81,46.38,46.38,46.38c25.58,0,46.38-20.81,46.38-46.38
			C96.43,24.47,75.63,3.67,50.05,3.67z"/>
	</g>
	<g>
		<path class="st0" d="M39.85,70.52L39.85,70.52c-2.46,0-4.48-2.01-4.48-4.48V33.5c0-2.46,2.01-4.48,4.48-4.48l0,0
			c2.46,0,4.48,2.01,4.48,4.48v32.54C44.33,68.51,42.31,70.52,39.85,70.52z"/>
		<path class="st0" d="M58.56,70.52L58.56,70.52c-2.46,0-4.48-2.01-4.48-4.48V33.5c0-2.46,2.01-4.48,4.48-4.48l0,0
			c2.46,0,4.48,2.01,4.48,4.48v32.54C63.04,68.51,61.02,70.52,58.56,70.52z"/>
	</g>
</g>
</svg>
