<?xml version="1.0" encoding="utf-8"?>
<!-- Generator: Adobe Illustrator 23.0.6, SVG Export Plug-In . SVG Version: 6.00 Build 0)  -->
<svg version="1.1" id="reload_1_" xmlns="http://www.w3.org/2000/svg" xmlns:xlink="http://www.w3.org/1999/xlink" x="0px" y="0px"
	 viewBox="0 0 100.1 100.1" style="enable-background:new 0 0 100.1 100.1;" xml:space="preserve">
<style type="text/css">
	.st0{fill:#BA7485;}
	.st1{fill:#BA7485;stroke:#BA7485;stroke-miterlimit:10;}
</style>
<g id="circle">
	<path class="st0" d="M50.05,100.1C22.45,100.1,0,77.65,0,50.05S22.45,0,50.05,0s50.05,22.45,50.05,50.05S77.65,100.1,50.05,100.1z
		 M50.05,3.67c-25.58,0-46.38,20.81-46.38,46.38c0,25.58,20.81,46.38,46.38,46.38c25.58,0,46.38-20.81,46.38-46.38
		C96.43,24.47,75.63,3.67,50.05,3.67z"/>
</g>
<g id="reload">
	<path class="st1" d="M72.32,34.16c-1.91-2.9-4.34-5.37-7.22-7.35c-2.88-1.98-6.06-3.36-9.45-4.1c-3.51-0.77-7.1-0.83-10.67-0.17
		c-3.57,0.66-6.9,2-9.9,3.99c-2.9,1.92-5.37,4.34-7.35,7.22c-1.98,2.88-3.36,6.06-4.1,9.45c-0.3,1.36-0.49,2.73-0.57,4.11l2.57-0.48
		c0.94-10.62,8.84-19.77,19.82-21.81c13.2-2.45,25.94,6.3,28.39,19.5s-6.3,25.94-19.5,28.39C43.35,74.95,32.69,69.24,28,59.66
		l-2.57,0.48c0.57,1.25,1.24,2.47,2.01,3.63c1.92,2.9,4.34,5.37,7.22,7.35c2.88,1.98,6.06,3.36,9.45,4.1
		c3.51,0.77,7.1,0.83,10.67,0.17c3.57-0.66,6.9-2,9.9-3.99c2.9-1.91,5.37-4.34,7.35-7.22c1.98-2.88,3.36-6.06,4.1-9.45
		c0.77-3.51,0.83-7.1,0.17-10.67C75.64,40.49,74.3,37.16,72.32,34.16z"/>
	<polygon class="st1" points="30.93,43.71 28.73,41.46 24.44,45.67 21.01,40.75 18.42,42.55 24.01,50.39 	"/>
</g>
</svg>
