<?xml version="1.0" encoding="utf-8"?>
<!-- Generator: Adobe Illustrator 23.0.6, SVG Export Plug-In . SVG Version: 6.00 Build 0)  -->
<svg version="1.1" id="purple_x5F_hearts" xmlns="http://www.w3.org/2000/svg" xmlns:xlink="http://www.w3.org/1999/xlink" x="0px"
	 y="0px" viewBox="0 0 108.5 86.2" style="enable-background:new 0 0 108.5 86.2;" xml:space="preserve">
<style type="text/css">
	.st0{fill:#EEDDE1;}
	.st1{fill:#393760;}
	.st2{fill:none;stroke:#474747;stroke-width:15;stroke-linecap:round;stroke-linejoin:round;stroke-miterlimit:10;}
</style>
<path id="light_x5F_rose_x5F_hearts" class="st0" d="M53.2,46.9c16,23.5-24.1-26.1-24.1-26.1C28.5,15.2,29,8.7,34.2,5.3
	c5.5-3.6,11-4.3,16.7-0.4c2.2,1.5,4.3,3.3,6.2,5.1C67.2-1,75.6,2.7,75.6,2.7S97,14.5,77.1,29.2l-7,10.6l10.6,10.1L81,61.6l-5.4,8.2
	v12.8H54.8l-0.1-10.1c0,0-7.8-4.7-8.8-11.1l-1.3-8.6c0,0-15.7,7.5-15.7,7.6c-2.6,1.2-9-1.2-11.3-2.3c-7.6-3.8-6.7-14.9-5.9-22
	c0.3-2.5,1.1-5,2.5-7.2c2.5-4,7.8-8.7,12.9-7.6c7.3,1.6,13.3,9.2,17.8,14.6C47.9,39.4,50.6,43.2,53.2,46.9z"/>
<g>
	<path class="st1" d="M52.2,62.4c-0.1,0-0.1,0-0.2,0c-0.7-0.1-1.2-0.8-1-1.5c0.6-3.3,3.2-5,5.2-5.6l-3.3-13.3
		c-0.9-2.9,0.7-6.1,3.6-7.1c3-1,6.1,0.7,7.1,3.6l6.3,19.3c0.2,0.7-0.1,1.4-0.8,1.6c-0.7,0.2-1.4-0.1-1.6-0.8l-6.3-19.3
		c-0.5-1.6-2.3-2.5-3.9-2c-1.6,0.5-2.5,2.3-2,3.9c0,0,0,0.1,0,0.1l3.6,14.6c0.1,0.4,0,0.7-0.2,1c-0.2,0.3-0.5,0.5-0.9,0.5
		c-0.2,0-3.8,0.5-4.4,3.8C53.3,61.9,52.8,62.4,52.2,62.4z"/>
	<path class="st1" d="M75.6,83c-0.7,0-1.3-0.6-1.3-1.3v-7.9c0-1.1,0.2-2.2,0.6-3.2l3.7-10c0.3-0.8,0.4-1.8,0.3-2.6l-0.8-7.9
		c-0.1-1.3-0.7-2.6-1.6-3.5l-6.5-6.9c-0.5-0.5-0.5-1.3,0.1-1.8c0.5-0.5,1.3-0.5,1.8,0.1l6.5,6.9c1.3,1.4,2.1,3.1,2.3,5l0.8,7.9
		c0.1,1.3,0,2.6-0.5,3.8l-3.7,10c-0.3,0.7-0.4,1.5-0.4,2.3v7.9C76.9,82.5,76.3,83,75.6,83z"/>
	<path class="st1" d="M54.8,83c-0.7,0-1.3-0.6-1.3-1.3V76c0-1.2-0.5-2.4-1.3-3.3l-3.7-4c-1.3-1.4-2.2-3-2.6-4.8l-1.3-5.7
		c-0.2-0.7,0.3-1.4,1-1.5c0.7-0.2,1.4,0.3,1.5,1l1.3,5.7c0.3,1.4,1,2.6,1.9,3.7l3.7,4c1.3,1.4,2,3.2,2,5v5.8
		C56.1,82.5,55.5,83,54.8,83z"/>
	<path class="st1" d="M55.7,51.1c-0.3,0-0.7-0.1-0.9-0.4l-23-23.3c-6.1-6.1-6.1-16,0-22.1c6.1-6.1,16-6.1,22.1,0l3.3,3.3l3.2-3.2
		c6.1-6.1,16-6.1,22.1,0c6.1,6.1,6.1,16,0,22.1L68.2,41.7c-0.5,0.5-1.3,0.5-1.8,0c-0.5-0.5-0.5-1.3,0-1.8l14.3-14.3
		c5.1-5.1,5.1-13.4,0-18.5c-5.1-5.1-13.4-5.1-18.5,0L58,11.3c-0.2,0.2-0.6,0.4-0.9,0.4c-0.3,0-0.7-0.1-0.9-0.4L52,7.1
		C46.9,2,38.6,2,33.5,7.1c-5.1,5.1-5.1,13.4,0,18.5l23,23.3c0.5,0.5,0.5,1.3,0,1.8C56.3,50.9,56,51.1,55.7,51.1z"/>
	<path class="st1" d="M55.2,50.5C55.1,50.5,55.1,50.5,55.2,50.5l-30.1-2.3c-7.5-0.6-13.2-7.2-12.6-14.7c0.5-6,4.7-10.9,10.6-12.3
		c0.7-0.2,1.4,0.3,1.5,0.9c0.2,0.7-0.3,1.4-0.9,1.5c-4.8,1.1-8.2,5.1-8.6,10c-0.5,6.2,4.1,11.6,10.3,12l30,2.3
		c0.7,0.1,1.2,0.7,1.2,1.4C56.4,50,55.8,50.5,55.2,50.5z"/>
	<path class="st2" d="M25.2,34.2"/>
	<path class="st1" d="M24.4,61.4c-2,0-4-0.5-5.9-1.3c-3.3-1.6-5.8-4.4-7-7.8c-0.8-2.2-1-4.6-0.6-6.9c0.1-0.7,0.8-1.1,1.5-1
		c0.7,0.1,1.1,0.8,1,1.5c-0.3,1.9-0.2,3.8,0.5,5.6c1,2.8,3,5.1,5.7,6.4c2.7,1.3,5.7,1.5,8.6,0.5l27.1-9.6c0.7-0.2,1.4,0.1,1.6,0.8
		c0.2,0.7-0.1,1.4-0.8,1.6L29,60.6C27.5,61.1,26,61.4,24.4,61.4z"/>
</g>
</svg>
